<mxfile host="Electron" agent="Mozilla/5.0 (Macintosh; Intel Mac OS X 10_15_7) AppleWebKit/537.36 (KHTML, like Gecko) draw.io/24.7.17 Chrome/128.0.6613.36 Electron/32.0.1 Safari/537.36" version="24.7.17">
  <diagram name="Page-1" id="dpxww9uyZvQLQl6fif8N">
    <mxGraphModel dx="1068" dy="2075" grid="1" gridSize="10" guides="1" tooltips="1" connect="1" arrows="1" fold="1" page="1" pageScale="1" pageWidth="850" pageHeight="1100" background="none" math="0" shadow="1">
      <root>
        <mxCell id="0" />
        <mxCell id="1" parent="0" />
        <mxCell id="MDA6934miWKbza66YVYo-3" value="" style="edgeStyle=none;curved=0;rounded=0;orthogonalLoop=1;jettySize=auto;html=1;fontFamily=Architects Daughter;fontSource=https%3A%2F%2Ffonts.googleapis.com%2Fcss%3Ffamily%3DArchitects%2BDaughter;fontSize=16;startSize=6;endArrow=classic;endSize=6;sourcePerimeterSpacing=0;targetPerimeterSpacing=0;endFill=1;" parent="1" source="JUKrKYP8TNYCJGP6pymC-39" target="MDA6934miWKbza66YVYo-4" edge="1">
          <mxGeometry relative="1" as="geometry">
            <mxPoint x="504.9999999999998" y="10" as="targetPoint" />
          </mxGeometry>
        </mxCell>
        <mxCell id="GbEaBLDFynrSSCm0yZM0-10" style="edgeStyle=orthogonalEdgeStyle;rounded=0;orthogonalLoop=1;jettySize=auto;html=1;entryX=0.5;entryY=0;entryDx=0;entryDy=0;" edge="1" parent="1" source="GbEaBLDFynrSSCm0yZM0-5" target="GbEaBLDFynrSSCm0yZM0-135">
          <mxGeometry relative="1" as="geometry">
            <mxPoint x="750.0526315789475" y="770" as="sourcePoint" />
            <mxPoint x="160" y="670" as="targetPoint" />
          </mxGeometry>
        </mxCell>
        <mxCell id="GbEaBLDFynrSSCm0yZM0-29" value="No" style="edgeLabel;html=1;align=center;verticalAlign=middle;resizable=0;points=[];" vertex="1" connectable="0" parent="GbEaBLDFynrSSCm0yZM0-10">
          <mxGeometry x="-0.3934" y="-2" relative="1" as="geometry">
            <mxPoint as="offset" />
          </mxGeometry>
        </mxCell>
        <mxCell id="GbEaBLDFynrSSCm0yZM0-65" value="Configuration Check" style="swimlane;horizontal=0;whiteSpace=wrap;html=1;" vertex="1" parent="1">
          <mxGeometry y="-230" width="590" height="210" as="geometry" />
        </mxCell>
        <mxCell id="JUKrKYP8TNYCJGP6pymC-7" value="Start" style="strokeWidth=2;html=1;shape=mxgraph.flowchart.start_1;whiteSpace=wrap;rounded=0;" parent="GbEaBLDFynrSSCm0yZM0-65" vertex="1">
          <mxGeometry x="30" y="116.25" width="45" height="22.5" as="geometry" />
        </mxCell>
        <mxCell id="GbEaBLDFynrSSCm0yZM0-123" value="No" style="edgeStyle=orthogonalEdgeStyle;rounded=0;orthogonalLoop=1;jettySize=auto;html=1;" edge="1" parent="GbEaBLDFynrSSCm0yZM0-65" source="JUKrKYP8TNYCJGP6pymC-21" target="GbEaBLDFynrSSCm0yZM0-122">
          <mxGeometry relative="1" as="geometry" />
        </mxCell>
        <mxCell id="JUKrKYP8TNYCJGP6pymC-21" value="Is feature flag enabled" style="rhombus;whiteSpace=wrap;html=1;strokeWidth=2;rounded=0;" parent="GbEaBLDFynrSSCm0yZM0-65" vertex="1">
          <mxGeometry x="120" y="75" width="100.8" height="105" as="geometry" />
        </mxCell>
        <mxCell id="JUKrKYP8TNYCJGP6pymC-22" value="" style="edgeStyle=orthogonalEdgeStyle;rounded=0;orthogonalLoop=1;jettySize=auto;html=1;" parent="GbEaBLDFynrSSCm0yZM0-65" source="JUKrKYP8TNYCJGP6pymC-7" target="JUKrKYP8TNYCJGP6pymC-21" edge="1">
          <mxGeometry relative="1" as="geometry" />
        </mxCell>
        <mxCell id="GbEaBLDFynrSSCm0yZM0-124" value="No" style="edgeStyle=orthogonalEdgeStyle;rounded=0;orthogonalLoop=1;jettySize=auto;html=1;" edge="1" parent="GbEaBLDFynrSSCm0yZM0-65" source="JUKrKYP8TNYCJGP6pymC-11" target="MDA6934miWKbza66YVYo-12">
          <mxGeometry relative="1" as="geometry" />
        </mxCell>
        <mxCell id="JUKrKYP8TNYCJGP6pymC-11" value="&lt;div&gt;&lt;span style=&quot;background-color: initial;&quot;&gt;Instance exists?&lt;/span&gt;&lt;br&gt;&lt;/div&gt;" style="strokeWidth=2;html=1;shape=mxgraph.flowchart.decision;whiteSpace=wrap;rounded=0;" parent="GbEaBLDFynrSSCm0yZM0-65" vertex="1">
          <mxGeometry x="280" y="72.5" width="110" height="110" as="geometry" />
        </mxCell>
        <mxCell id="JUKrKYP8TNYCJGP6pymC-29" value="Yes" style="edgeStyle=orthogonalEdgeStyle;rounded=0;orthogonalLoop=1;jettySize=auto;html=1;" parent="GbEaBLDFynrSSCm0yZM0-65" source="JUKrKYP8TNYCJGP6pymC-21" target="JUKrKYP8TNYCJGP6pymC-11" edge="1">
          <mxGeometry relative="1" as="geometry">
            <mxPoint x="280" y="300" as="targetPoint" />
          </mxGeometry>
        </mxCell>
        <mxCell id="JUKrKYP8TNYCJGP6pymC-39" value="&lt;div&gt;&lt;span style=&quot;background-color: initial;&quot;&gt;Plan bindable?&lt;/span&gt;&lt;br&gt;&lt;/div&gt;" style="strokeWidth=2;html=1;shape=mxgraph.flowchart.decision;whiteSpace=wrap;rounded=0;" parent="GbEaBLDFynrSSCm0yZM0-65" vertex="1">
          <mxGeometry x="455" y="75" width="100" height="100" as="geometry" />
        </mxCell>
        <mxCell id="JUKrKYP8TNYCJGP6pymC-38" style="edgeStyle=orthogonalEdgeStyle;rounded=0;orthogonalLoop=1;jettySize=auto;html=1;" parent="GbEaBLDFynrSSCm0yZM0-65" source="JUKrKYP8TNYCJGP6pymC-11" target="JUKrKYP8TNYCJGP6pymC-39" edge="1">
          <mxGeometry relative="1" as="geometry">
            <mxPoint x="172.5" y="770" as="targetPoint" />
          </mxGeometry>
        </mxCell>
        <mxCell id="JUKrKYP8TNYCJGP6pymC-40" value="Yes" style="edgeLabel;html=1;align=center;verticalAlign=middle;resizable=0;points=[];rounded=0;" parent="JUKrKYP8TNYCJGP6pymC-38" vertex="1" connectable="0">
          <mxGeometry y="-1" relative="1" as="geometry">
            <mxPoint as="offset" />
          </mxGeometry>
        </mxCell>
        <mxCell id="MDA6934miWKbza66YVYo-12" value="End" style="strokeWidth=2;html=1;shape=mxgraph.flowchart.start_1;whiteSpace=wrap;rounded=0;" parent="GbEaBLDFynrSSCm0yZM0-65" vertex="1">
          <mxGeometry x="318.34000000000003" y="15" width="33.33" height="20" as="geometry" />
        </mxCell>
        <mxCell id="JUKrKYP8TNYCJGP6pymC-41" style="edgeStyle=orthogonalEdgeStyle;rounded=0;orthogonalLoop=1;jettySize=auto;html=1;" parent="GbEaBLDFynrSSCm0yZM0-65" source="JUKrKYP8TNYCJGP6pymC-39" target="GbEaBLDFynrSSCm0yZM0-121" edge="1">
          <mxGeometry relative="1" as="geometry">
            <mxPoint x="100" y="662.3299999999999" as="sourcePoint" />
            <mxPoint x="160" y="602.3299999999999" as="targetPoint" />
          </mxGeometry>
        </mxCell>
        <mxCell id="JUKrKYP8TNYCJGP6pymC-42" value="No" style="edgeLabel;html=1;align=center;verticalAlign=middle;resizable=0;points=[];rounded=0;" parent="JUKrKYP8TNYCJGP6pymC-41" vertex="1" connectable="0">
          <mxGeometry x="-0.1778" y="1" relative="1" as="geometry">
            <mxPoint as="offset" />
          </mxGeometry>
        </mxCell>
        <mxCell id="GbEaBLDFynrSSCm0yZM0-122" value="End" style="strokeWidth=2;html=1;shape=mxgraph.flowchart.start_1;whiteSpace=wrap;rounded=0;" vertex="1" parent="GbEaBLDFynrSSCm0yZM0-65">
          <mxGeometry x="153.74" y="15" width="33.33" height="20" as="geometry" />
        </mxCell>
        <mxCell id="GbEaBLDFynrSSCm0yZM0-121" value="End" style="strokeWidth=2;html=1;shape=mxgraph.flowchart.start_1;whiteSpace=wrap;rounded=0;" vertex="1" parent="GbEaBLDFynrSSCm0yZM0-65">
          <mxGeometry x="488.33000000000004" y="15" width="33.33" height="20" as="geometry" />
        </mxCell>
        <mxCell id="GbEaBLDFynrSSCm0yZM0-83" value="Request Validation" style="swimlane;horizontal=0;whiteSpace=wrap;html=1;" vertex="1" parent="1">
          <mxGeometry y="-10" width="590" height="620" as="geometry" />
        </mxCell>
        <mxCell id="GbEaBLDFynrSSCm0yZM0-41" value="Checking if expiration value is between min and max balues." style="whiteSpace=wrap;html=1;strokeWidth=2;rounded=0;" vertex="1" parent="GbEaBLDFynrSSCm0yZM0-83">
          <mxGeometry x="255" y="20" width="120" height="60" as="geometry" />
        </mxCell>
        <mxCell id="MDA6934miWKbza66YVYo-7" value="&lt;div&gt;&lt;span style=&quot;background-color: initial;&quot;&gt;Is inside of range?&lt;/span&gt;&lt;br&gt;&lt;/div&gt;" style="strokeWidth=2;html=1;shape=mxgraph.flowchart.decision;whiteSpace=wrap;rounded=0;" parent="GbEaBLDFynrSSCm0yZM0-83" vertex="1">
          <mxGeometry x="100" y="10" width="100" height="100" as="geometry" />
        </mxCell>
        <mxCell id="GbEaBLDFynrSSCm0yZM0-42" style="edgeStyle=orthogonalEdgeStyle;rounded=0;orthogonalLoop=1;jettySize=auto;html=1;" edge="1" parent="GbEaBLDFynrSSCm0yZM0-83" source="GbEaBLDFynrSSCm0yZM0-41" target="MDA6934miWKbza66YVYo-7">
          <mxGeometry relative="1" as="geometry" />
        </mxCell>
        <mxCell id="GbEaBLDFynrSSCm0yZM0-38" value="Check if existing binding has different parameters than the one from DB." style="whiteSpace=wrap;html=1;strokeWidth=2;rounded=0;" vertex="1" parent="GbEaBLDFynrSSCm0yZM0-83">
          <mxGeometry x="245" y="120" width="130" height="80" as="geometry" />
        </mxCell>
        <mxCell id="MDA6934miWKbza66YVYo-11" value="&lt;div&gt;&lt;span style=&quot;background-color: initial;&quot;&gt;Different?&lt;/span&gt;&lt;br&gt;&lt;/div&gt;" style="strokeWidth=2;html=1;shape=mxgraph.flowchart.decision;whiteSpace=wrap;rounded=0;" parent="GbEaBLDFynrSSCm0yZM0-83" vertex="1">
          <mxGeometry x="455" y="110" width="100" height="100" as="geometry" />
        </mxCell>
        <mxCell id="GbEaBLDFynrSSCm0yZM0-40" style="edgeStyle=orthogonalEdgeStyle;rounded=0;orthogonalLoop=1;jettySize=auto;html=1;" edge="1" parent="GbEaBLDFynrSSCm0yZM0-83" source="GbEaBLDFynrSSCm0yZM0-38" target="MDA6934miWKbza66YVYo-11">
          <mxGeometry relative="1" as="geometry" />
        </mxCell>
        <mxCell id="MDA6934miWKbza66YVYo-26" value="&lt;div&gt;Exists?&lt;/div&gt;" style="strokeWidth=2;html=1;shape=mxgraph.flowchart.decision;whiteSpace=wrap;rounded=0;" parent="GbEaBLDFynrSSCm0yZM0-83" vertex="1">
          <mxGeometry x="260" y="250" width="100" height="100" as="geometry" />
        </mxCell>
        <mxCell id="MDA6934miWKbza66YVYo-28" value="&lt;font style=&quot;font-size: 11px;&quot; face=&quot;Helvetica&quot;&gt;Yes&lt;/font&gt;" style="edgeStyle=none;curved=1;rounded=0;orthogonalLoop=1;jettySize=auto;html=1;fontFamily=Architects Daughter;fontSource=https%3A%2F%2Ffonts.googleapis.com%2Fcss%3Ffamily%3DArchitects%2BDaughter;fontSize=16;startSize=6;endArrow=classic;endSize=6;sourcePerimeterSpacing=0;targetPerimeterSpacing=0;endFill=1;" parent="GbEaBLDFynrSSCm0yZM0-83" source="MDA6934miWKbza66YVYo-26" target="GbEaBLDFynrSSCm0yZM0-38" edge="1">
          <mxGeometry relative="1" as="geometry">
            <mxPoint x="415" y="470" as="targetPoint" />
            <mxPoint as="offset" />
          </mxGeometry>
        </mxCell>
        <mxCell id="GbEaBLDFynrSSCm0yZM0-43" value="Check if binding exists for the specified instance and binding ids?" style="whiteSpace=wrap;html=1;strokeWidth=2;rounded=0;" vertex="1" parent="GbEaBLDFynrSSCm0yZM0-83">
          <mxGeometry x="90" y="270" width="120" height="60" as="geometry" />
        </mxCell>
        <mxCell id="MDA6934miWKbza66YVYo-14" style="edgeStyle=none;curved=1;rounded=0;orthogonalLoop=1;jettySize=auto;html=1;fontFamily=Architects Daughter;fontSource=https%3A%2F%2Ffonts.googleapis.com%2Fcss%3Ffamily%3DArchitects%2BDaughter;fontSize=16;startSize=6;endArrow=classic;endSize=6;sourcePerimeterSpacing=0;targetPerimeterSpacing=0;endFill=1;" parent="GbEaBLDFynrSSCm0yZM0-83" source="MDA6934miWKbza66YVYo-7" target="GbEaBLDFynrSSCm0yZM0-43" edge="1">
          <mxGeometry relative="1" as="geometry">
            <mxPoint x="173" y="1180" as="targetPoint" />
          </mxGeometry>
        </mxCell>
        <mxCell id="MDA6934miWKbza66YVYo-20" value="&lt;font style=&quot;font-size: 11px;&quot; face=&quot;Helvetica&quot;&gt;Yes&lt;/font&gt;" style="edgeLabel;html=1;align=center;verticalAlign=middle;resizable=0;points=[];fontSize=16;fontFamily=Architects Daughter;fontSource=https%3A%2F%2Ffonts.googleapis.com%2Fcss%3Ffamily%3DArchitects%2BDaughter;" parent="MDA6934miWKbza66YVYo-14" vertex="1" connectable="0">
          <mxGeometry x="-0.3714" y="2" relative="1" as="geometry">
            <mxPoint x="-3" y="4" as="offset" />
          </mxGeometry>
        </mxCell>
        <mxCell id="GbEaBLDFynrSSCm0yZM0-45" style="edgeStyle=orthogonalEdgeStyle;rounded=0;orthogonalLoop=1;jettySize=auto;html=1;" edge="1" parent="GbEaBLDFynrSSCm0yZM0-83" source="GbEaBLDFynrSSCm0yZM0-43" target="MDA6934miWKbza66YVYo-26">
          <mxGeometry relative="1" as="geometry" />
        </mxCell>
        <mxCell id="MDA6934miWKbza66YVYo-13" style="edgeStyle=none;curved=1;rounded=0;orthogonalLoop=1;jettySize=auto;html=1;fontFamily=Architects Daughter;fontSource=https%3A%2F%2Ffonts.googleapis.com%2Fcss%3Ffamily%3DArchitects%2BDaughter;fontSize=16;startSize=6;endArrow=classic;endSize=6;sourcePerimeterSpacing=0;targetPerimeterSpacing=0;endFill=1;" parent="GbEaBLDFynrSSCm0yZM0-83" source="MDA6934miWKbza66YVYo-11" target="GbEaBLDFynrSSCm0yZM0-66" edge="1">
          <mxGeometry relative="1" as="geometry" />
        </mxCell>
        <mxCell id="MDA6934miWKbza66YVYo-17" value="&lt;font style=&quot;font-size: 11px;&quot; face=&quot;Helvetica&quot;&gt;Yes&lt;/font&gt;" style="edgeLabel;html=1;align=right;verticalAlign=middle;resizable=0;points=[];fontSize=16;fontFamily=Architects Daughter;fontSource=https%3A%2F%2Ffonts.googleapis.com%2Fcss%3Ffamily%3DArchitects%2BDaughter;" parent="MDA6934miWKbza66YVYo-13" vertex="1" connectable="0">
          <mxGeometry x="-0.0123" y="-4" relative="1" as="geometry">
            <mxPoint x="8" y="-4" as="offset" />
          </mxGeometry>
        </mxCell>
        <mxCell id="GbEaBLDFynrSSCm0yZM0-46" value="Check if existing binding is expired?" style="whiteSpace=wrap;html=1;strokeWidth=2;rounded=0;" vertex="1" parent="GbEaBLDFynrSSCm0yZM0-83">
          <mxGeometry x="440" y="260" width="130" height="80" as="geometry" />
        </mxCell>
        <mxCell id="MDA6934miWKbza66YVYo-19" style="edgeStyle=none;curved=1;rounded=0;orthogonalLoop=1;jettySize=auto;html=1;fontFamily=Architects Daughter;fontSource=https%3A%2F%2Ffonts.googleapis.com%2Fcss%3Ffamily%3DArchitects%2BDaughter;fontSize=16;startSize=6;endArrow=classic;endSize=6;sourcePerimeterSpacing=0;targetPerimeterSpacing=0;endFill=1;" parent="GbEaBLDFynrSSCm0yZM0-83" source="MDA6934miWKbza66YVYo-11" target="GbEaBLDFynrSSCm0yZM0-46" edge="1">
          <mxGeometry relative="1" as="geometry" />
        </mxCell>
        <mxCell id="MDA6934miWKbza66YVYo-21" value="&lt;font style=&quot;font-size: 11px;&quot; face=&quot;Helvetica&quot;&gt;No&lt;/font&gt;" style="edgeLabel;html=1;align=center;verticalAlign=middle;resizable=0;points=[];fontSize=16;fontFamily=Architects Daughter;fontSource=https%3A%2F%2Ffonts.googleapis.com%2Fcss%3Ffamily%3DArchitects%2BDaughter;" parent="MDA6934miWKbza66YVYo-19" vertex="1" connectable="0">
          <mxGeometry x="-0.3333" y="1" relative="1" as="geometry">
            <mxPoint as="offset" />
          </mxGeometry>
        </mxCell>
        <mxCell id="MDA6934miWKbza66YVYo-18" value="&lt;div&gt;Expired?&lt;/div&gt;" style="strokeWidth=2;html=1;shape=mxgraph.flowchart.decision;whiteSpace=wrap;rounded=0;" parent="GbEaBLDFynrSSCm0yZM0-83" vertex="1">
          <mxGeometry x="455" y="375" width="100" height="100" as="geometry" />
        </mxCell>
        <mxCell id="GbEaBLDFynrSSCm0yZM0-47" style="edgeStyle=orthogonalEdgeStyle;rounded=0;orthogonalLoop=1;jettySize=auto;html=1;" edge="1" parent="GbEaBLDFynrSSCm0yZM0-83" source="GbEaBLDFynrSSCm0yZM0-46" target="MDA6934miWKbza66YVYo-18">
          <mxGeometry relative="1" as="geometry" />
        </mxCell>
        <mxCell id="MDA6934miWKbza66YVYo-22" value="Return the binding" style="whiteSpace=wrap;html=1;strokeWidth=2;rounded=0;" parent="GbEaBLDFynrSSCm0yZM0-83" vertex="1">
          <mxGeometry x="445" y="510" width="120" height="60" as="geometry" />
        </mxCell>
        <mxCell id="MDA6934miWKbza66YVYo-23" style="edgeStyle=none;curved=1;rounded=0;orthogonalLoop=1;jettySize=auto;html=1;fontFamily=Architects Daughter;fontSource=https%3A%2F%2Ffonts.googleapis.com%2Fcss%3Ffamily%3DArchitects%2BDaughter;fontSize=16;startSize=6;endArrow=classic;endSize=6;sourcePerimeterSpacing=0;targetPerimeterSpacing=0;endFill=1;" parent="GbEaBLDFynrSSCm0yZM0-83" source="MDA6934miWKbza66YVYo-18" target="MDA6934miWKbza66YVYo-22" edge="1">
          <mxGeometry relative="1" as="geometry" />
        </mxCell>
        <mxCell id="MDA6934miWKbza66YVYo-29" value="&lt;font face=&quot;Helvetica&quot; style=&quot;font-size: 11px;&quot;&gt;No&lt;/font&gt;" style="edgeLabel;html=1;align=center;verticalAlign=middle;resizable=0;points=[];fontSize=11;fontFamily=Architects Daughter;fontSource=https%3A%2F%2Ffonts.googleapis.com%2Fcss%3Ffamily%3DArchitects%2BDaughter;" parent="MDA6934miWKbza66YVYo-23" vertex="1" connectable="0">
          <mxGeometry x="-0.2143" y="-3" relative="1" as="geometry">
            <mxPoint as="offset" />
          </mxGeometry>
        </mxCell>
        <mxCell id="GbEaBLDFynrSSCm0yZM0-66" value="End" style="strokeWidth=2;html=1;shape=mxgraph.flowchart.start_1;whiteSpace=wrap;rounded=0;" vertex="1" parent="GbEaBLDFynrSSCm0yZM0-83">
          <mxGeometry x="380" y="220" width="33.33" height="20" as="geometry" />
        </mxCell>
        <mxCell id="MDA6934miWKbza66YVYo-25" style="edgeStyle=none;curved=1;rounded=0;orthogonalLoop=1;jettySize=auto;html=1;fontFamily=Helvetica;fontSize=16;startSize=6;endArrow=classic;endSize=6;sourcePerimeterSpacing=0;targetPerimeterSpacing=0;endFill=1;" parent="GbEaBLDFynrSSCm0yZM0-83" source="MDA6934miWKbza66YVYo-22" target="GbEaBLDFynrSSCm0yZM0-127" edge="1">
          <mxGeometry relative="1" as="geometry">
            <mxPoint x="400" y="540" as="targetPoint" />
          </mxGeometry>
        </mxCell>
        <mxCell id="GbEaBLDFynrSSCm0yZM0-1" value="" style="verticalLabelPosition=bottom;verticalAlign=top;html=1;shape=mxgraph.flowchart.or;" vertex="1" parent="GbEaBLDFynrSSCm0yZM0-83">
          <mxGeometry x="295" y="410" width="30" height="30" as="geometry" />
        </mxCell>
        <mxCell id="GbEaBLDFynrSSCm0yZM0-4" value="Yes" style="edgeStyle=orthogonalEdgeStyle;rounded=0;orthogonalLoop=1;jettySize=auto;html=1;" edge="1" parent="GbEaBLDFynrSSCm0yZM0-83" source="MDA6934miWKbza66YVYo-18" target="GbEaBLDFynrSSCm0yZM0-1">
          <mxGeometry relative="1" as="geometry" />
        </mxCell>
        <mxCell id="GbEaBLDFynrSSCm0yZM0-48" value="Check if the number of non-expired bindings for the instance exceed allowed limit?" style="whiteSpace=wrap;html=1;strokeWidth=2;rounded=0;" vertex="1" parent="GbEaBLDFynrSSCm0yZM0-83">
          <mxGeometry x="50" y="360" width="130" height="80" as="geometry" />
        </mxCell>
        <mxCell id="GbEaBLDFynrSSCm0yZM0-28" style="edgeStyle=orthogonalEdgeStyle;rounded=0;orthogonalLoop=1;jettySize=auto;html=1;" edge="1" parent="GbEaBLDFynrSSCm0yZM0-83" source="GbEaBLDFynrSSCm0yZM0-1" target="GbEaBLDFynrSSCm0yZM0-48">
          <mxGeometry relative="1" as="geometry" />
        </mxCell>
        <mxCell id="GbEaBLDFynrSSCm0yZM0-5" value="Limit Exceeded" style="strokeWidth=2;html=1;shape=mxgraph.flowchart.decision;whiteSpace=wrap;rounded=0;" vertex="1" parent="GbEaBLDFynrSSCm0yZM0-83">
          <mxGeometry x="65" y="490" width="100" height="100" as="geometry" />
        </mxCell>
        <mxCell id="GbEaBLDFynrSSCm0yZM0-8" value="Yes" style="edgeStyle=orthogonalEdgeStyle;rounded=0;orthogonalLoop=1;jettySize=auto;html=1;" edge="1" parent="GbEaBLDFynrSSCm0yZM0-83" source="GbEaBLDFynrSSCm0yZM0-5" target="GbEaBLDFynrSSCm0yZM0-127">
          <mxGeometry relative="1" as="geometry" />
        </mxCell>
        <mxCell id="GbEaBLDFynrSSCm0yZM0-49" style="edgeStyle=orthogonalEdgeStyle;rounded=0;orthogonalLoop=1;jettySize=auto;html=1;" edge="1" parent="GbEaBLDFynrSSCm0yZM0-83" source="GbEaBLDFynrSSCm0yZM0-48" target="GbEaBLDFynrSSCm0yZM0-5">
          <mxGeometry relative="1" as="geometry">
            <Array as="points">
              <mxPoint x="120" y="580" />
            </Array>
          </mxGeometry>
        </mxCell>
        <mxCell id="GbEaBLDFynrSSCm0yZM0-87" value="No" style="edgeStyle=orthogonalEdgeStyle;rounded=0;orthogonalLoop=1;jettySize=auto;html=1;entryX=0.5;entryY=0;entryDx=0;entryDy=0;entryPerimeter=0;" edge="1" parent="GbEaBLDFynrSSCm0yZM0-83" source="MDA6934miWKbza66YVYo-26" target="GbEaBLDFynrSSCm0yZM0-1">
          <mxGeometry relative="1" as="geometry" />
        </mxCell>
        <mxCell id="GbEaBLDFynrSSCm0yZM0-7" value="End" style="strokeWidth=2;html=1;shape=mxgraph.flowchart.start_1;whiteSpace=wrap;rounded=0;" vertex="1" parent="GbEaBLDFynrSSCm0yZM0-83">
          <mxGeometry x="40" y="50" width="33.33" height="20" as="geometry" />
        </mxCell>
        <mxCell id="MDA6934miWKbza66YVYo-10" style="edgeStyle=none;curved=1;rounded=0;orthogonalLoop=1;jettySize=auto;html=1;fontFamily=Architects Daughter;fontSource=https%3A%2F%2Ffonts.googleapis.com%2Fcss%3Ffamily%3DArchitects%2BDaughter;fontSize=16;startSize=6;endArrow=classic;endSize=6;sourcePerimeterSpacing=0;targetPerimeterSpacing=0;endFill=1;" parent="GbEaBLDFynrSSCm0yZM0-83" source="MDA6934miWKbza66YVYo-7" target="GbEaBLDFynrSSCm0yZM0-7" edge="1">
          <mxGeometry relative="1" as="geometry">
            <mxPoint x="80" y="840" as="sourcePoint" />
          </mxGeometry>
        </mxCell>
        <mxCell id="MDA6934miWKbza66YVYo-15" value="&lt;font style=&quot;font-size: 11px;&quot; face=&quot;Helvetica&quot;&gt;No&lt;/font&gt;" style="edgeLabel;html=1;align=center;verticalAlign=middle;resizable=0;points=[];fontSize=16;fontFamily=Architects Daughter;fontSource=https%3A%2F%2Ffonts.googleapis.com%2Fcss%3Ffamily%3DArchitects%2BDaughter;" parent="MDA6934miWKbza66YVYo-10" vertex="1" connectable="0">
          <mxGeometry x="-0.1647" relative="1" as="geometry">
            <mxPoint as="offset" />
          </mxGeometry>
        </mxCell>
        <mxCell id="GbEaBLDFynrSSCm0yZM0-127" value="End" style="strokeWidth=2;html=1;shape=mxgraph.flowchart.start_1;whiteSpace=wrap;rounded=0;" vertex="1" parent="GbEaBLDFynrSSCm0yZM0-83">
          <mxGeometry x="295" y="527.5" width="35" height="25" as="geometry" />
        </mxCell>
        <mxCell id="MDA6934miWKbza66YVYo-4" value="Unmarshal binding and binding parameters" style="whiteSpace=wrap;html=1;strokeWidth=2;rounded=0;" parent="GbEaBLDFynrSSCm0yZM0-83" vertex="1">
          <mxGeometry x="445" y="20" width="120" height="60" as="geometry" />
        </mxCell>
        <mxCell id="MDA6934miWKbza66YVYo-27" style="edgeStyle=none;curved=1;rounded=0;orthogonalLoop=1;jettySize=auto;html=1;fontFamily=Architects Daughter;fontSource=https%3A%2F%2Ffonts.googleapis.com%2Fcss%3Ffamily%3DArchitects%2BDaughter;fontSize=16;startSize=6;endArrow=classic;endSize=6;sourcePerimeterSpacing=0;targetPerimeterSpacing=0;endFill=1;" parent="GbEaBLDFynrSSCm0yZM0-83" source="MDA6934miWKbza66YVYo-4" target="GbEaBLDFynrSSCm0yZM0-41" edge="1">
          <mxGeometry relative="1" as="geometry">
            <mxPoint x="555" y="680" as="sourcePoint" />
            <mxPoint x="345" y="830" as="targetPoint" />
          </mxGeometry>
        </mxCell>
        <mxCell id="GbEaBLDFynrSSCm0yZM0-31" value="Binding Creation" style="swimlane;horizontal=0;whiteSpace=wrap;html=1;container=0;" vertex="1" parent="1">
          <mxGeometry y="620" width="590" height="421.45" as="geometry">
            <mxRectangle width="40" height="120" as="alternateBounds" />
          </mxGeometry>
        </mxCell>
        <mxCell id="GbEaBLDFynrSSCm0yZM0-14" value="Build a kubeconfig with generated token" style="whiteSpace=wrap;html=1;" vertex="1" parent="GbEaBLDFynrSSCm0yZM0-31">
          <mxGeometry x="400" y="275" width="182.22" height="51.94" as="geometry" />
        </mxCell>
        <mxCell id="GbEaBLDFynrSSCm0yZM0-22" value="End" style="strokeWidth=2;html=1;shape=mxgraph.flowchart.start_1;whiteSpace=wrap;rounded=0;" vertex="1" parent="GbEaBLDFynrSSCm0yZM0-31">
          <mxGeometry x="70.00000000000003" y="355.00000000000006" width="57.28" height="30" as="geometry" />
        </mxCell>
        <mxCell id="GbEaBLDFynrSSCm0yZM0-9" value="Create new binding db record with estimated expiration time" style="whiteSpace=wrap;html=1;" vertex="1" parent="GbEaBLDFynrSSCm0yZM0-31">
          <mxGeometry x="43.52160493827161" y="170.00451612903228" width="121.4814814814815" height="70.96774193548387" as="geometry" />
        </mxCell>
        <mxCell id="GbEaBLDFynrSSCm0yZM0-11" value="Create connected Service Account, ClusterRole and ClusterRoleBinding all named: kyma-binding-{binding-id} or use existing one" style="whiteSpace=wrap;html=1;" vertex="1" parent="GbEaBLDFynrSSCm0yZM0-31">
          <mxGeometry x="190" y="10.490000000000009" width="182.22" height="91.94" as="geometry" />
        </mxCell>
        <mxCell id="GbEaBLDFynrSSCm0yZM0-15" style="edgeStyle=orthogonalEdgeStyle;rounded=0;orthogonalLoop=1;jettySize=auto;html=1;" edge="1" parent="GbEaBLDFynrSSCm0yZM0-31" source="GbEaBLDFynrSSCm0yZM0-9" target="GbEaBLDFynrSSCm0yZM0-11">
          <mxGeometry relative="1" as="geometry" />
        </mxCell>
        <mxCell id="GbEaBLDFynrSSCm0yZM0-13" value="Create a Token Request with given or default expiration time associated with previously create service account" style="whiteSpace=wrap;html=1;" vertex="1" parent="GbEaBLDFynrSSCm0yZM0-31">
          <mxGeometry x="400" y="15.490000000000009" width="182.22" height="81.94" as="geometry" />
        </mxCell>
        <mxCell id="GbEaBLDFynrSSCm0yZM0-16" style="edgeStyle=orthogonalEdgeStyle;rounded=0;orthogonalLoop=1;jettySize=auto;html=1;" edge="1" parent="GbEaBLDFynrSSCm0yZM0-31" source="GbEaBLDFynrSSCm0yZM0-11" target="GbEaBLDFynrSSCm0yZM0-13">
          <mxGeometry relative="1" as="geometry" />
        </mxCell>
        <mxCell id="GbEaBLDFynrSSCm0yZM0-17" style="edgeStyle=orthogonalEdgeStyle;rounded=0;orthogonalLoop=1;jettySize=auto;html=1;" edge="1" parent="GbEaBLDFynrSSCm0yZM0-31" source="GbEaBLDFynrSSCm0yZM0-13" target="GbEaBLDFynrSSCm0yZM0-14">
          <mxGeometry relative="1" as="geometry" />
        </mxCell>
        <mxCell id="GbEaBLDFynrSSCm0yZM0-18" value="Update the db record with generated kubeconfig and actual expiration time" style="whiteSpace=wrap;html=1;" vertex="1" parent="GbEaBLDFynrSSCm0yZM0-31">
          <mxGeometry x="200" y="270.00000000000006" width="182.22" height="61.93" as="geometry" />
        </mxCell>
        <mxCell id="GbEaBLDFynrSSCm0yZM0-19" style="edgeStyle=orthogonalEdgeStyle;rounded=0;orthogonalLoop=1;jettySize=auto;html=1;" edge="1" parent="GbEaBLDFynrSSCm0yZM0-31" source="GbEaBLDFynrSSCm0yZM0-14" target="GbEaBLDFynrSSCm0yZM0-18">
          <mxGeometry relative="1" as="geometry" />
        </mxCell>
        <mxCell id="GbEaBLDFynrSSCm0yZM0-20" value="Return the created binding with generated Kubeconfig" style="whiteSpace=wrap;html=1;" vertex="1" parent="GbEaBLDFynrSSCm0yZM0-31">
          <mxGeometry x="32.78" y="275.00000000000006" width="132.22" height="51.93" as="geometry" />
        </mxCell>
        <mxCell id="GbEaBLDFynrSSCm0yZM0-21" style="edgeStyle=orthogonalEdgeStyle;rounded=0;orthogonalLoop=1;jettySize=auto;html=1;" edge="1" parent="GbEaBLDFynrSSCm0yZM0-31" source="GbEaBLDFynrSSCm0yZM0-18" target="GbEaBLDFynrSSCm0yZM0-20">
          <mxGeometry relative="1" as="geometry" />
        </mxCell>
        <mxCell id="GbEaBLDFynrSSCm0yZM0-23" style="edgeStyle=orthogonalEdgeStyle;rounded=0;orthogonalLoop=1;jettySize=auto;html=1;" edge="1" parent="GbEaBLDFynrSSCm0yZM0-31" source="GbEaBLDFynrSSCm0yZM0-20" target="GbEaBLDFynrSSCm0yZM0-22">
          <mxGeometry relative="1" as="geometry" />
        </mxCell>
        <mxCell id="GbEaBLDFynrSSCm0yZM0-136" value="No" style="edgeStyle=orthogonalEdgeStyle;rounded=0;orthogonalLoop=1;jettySize=auto;html=1;" edge="1" parent="GbEaBLDFynrSSCm0yZM0-31" source="GbEaBLDFynrSSCm0yZM0-135" target="GbEaBLDFynrSSCm0yZM0-9">
          <mxGeometry relative="1" as="geometry" />
        </mxCell>
        <mxCell id="GbEaBLDFynrSSCm0yZM0-135" value="An expired binding exists?" style="rhombus;whiteSpace=wrap;html=1;" vertex="1" parent="GbEaBLDFynrSSCm0yZM0-31">
          <mxGeometry x="70" y="15.490000000000002" width="97.57" height="97.57" as="geometry" />
        </mxCell>
        <mxCell id="GbEaBLDFynrSSCm0yZM0-137" value="Fail" style="strokeWidth=2;html=1;shape=mxgraph.flowchart.start_1;whiteSpace=wrap;rounded=0;" vertex="1" parent="GbEaBLDFynrSSCm0yZM0-31">
          <mxGeometry x="29.99999999999997" y="97.42999999999995" width="35" height="25" as="geometry" />
        </mxCell>
        <mxCell id="GbEaBLDFynrSSCm0yZM0-138" value="Yes" style="edgeStyle=orthogonalEdgeStyle;rounded=0;orthogonalLoop=1;jettySize=auto;html=1;entryX=0.5;entryY=0;entryDx=0;entryDy=0;entryPerimeter=0;" edge="1" parent="GbEaBLDFynrSSCm0yZM0-31" source="GbEaBLDFynrSSCm0yZM0-135" target="GbEaBLDFynrSSCm0yZM0-137">
          <mxGeometry relative="1" as="geometry" />
        </mxCell>
        <mxCell id="GbEaBLDFynrSSCm0yZM0-139" value="" style="shape=stencil(fZbdcgIhDIWfZm8zQAg/17Z9j85U606tdqz9e/tmZ0c0uJ47xP0I5JwEBl59bp8/1kNwn6fj4W39M76ctgM/DCGM++36OJ50NPDjwKvN4bh+PR6+9i/z74/n6ctp9H74nlb4nbmSKZeJCu5vngmZ6jzzNAO7cX8FVKEsBuBKrgKg9oAE8gkCbLeUhEoEQKSUDZDLeWYRKIl8MEDRmHwfyBrBG6Amyu4+kDxxMoB3jhwgYu7TVAsVkFcWCs4CTBEoF4RctKeOxHIf8IXYpikHikAIf+MNUW94AGSSaoAoFIE3AlOyeWU+p2E5S9yfQZcQILVuQOwZdJNoS9Ls3wA5u2XZTIHECqeJ9kDpSaauRiNVcAY1QhdBzeLBli5WazpkSsBLV25uRaqWRyFawTQzRRIQYirJzq5atkBqLfouwqUxLBepthWb10vrWZY6UOAeyKCCtDV625mm9gmUC4Wc3VLJMMIE1BsA2FW9JraVlQB7n3c9oMKhCLEvIM1zBPZ25/umNQ1tVEC2G+fFCC8g398O2hNQuQlVu752DBfA+q0ptnqO5JFmeuIuo9DY7KjY71UxdJV4EntifPWorW++R/dC4t7V3DlIB5cHx2bc7eb3yvX//QNFp+bHDT/+Aw==);lineShape=1;strokeColor=default;" vertex="1" parent="1">
          <mxGeometry x="699.711270297805" y="381.4133151813212" width="4.063078062709279" height="4.056727144658473" as="geometry" />
        </mxCell>
      </root>
    </mxGraphModel>
  </diagram>
</mxfile>
